<svg width="940" height="560" viewBox="0 0 940 560" xmlns="http://www.w3.org/2000/svg">
  <defs>
    <style>
      .bg { fill: #0d1117; }
      .border { fill: none; stroke: #7ee7fc; stroke-width: 1.5; }
      .label { font-family: 'Courier New', monospace; font-size: 14px; fill: #bd93f9; }
      .value { font-family: 'Courier New', monospace; font-size: 14px; fill: #e6f1ff; }
      .heading { font-family: 'Courier New', monospace; font-size: 14px; fill: #58e6c1; font-weight: bold; }
      .path { font-family: 'Courier New', monospace; font-size: 13px; fill: #6b7280; }
      .prompt { font-family: 'Courier New', monospace; font-size: 13px; fill: #ff79c6; }
      .cursor { fill: #ff79c6; }
      .boot { font-family: 'Courier New', monospace; font-size: 13px; fill: #58e6c1; }
      .bootok { font-family: 'Courier New', monospace; font-size: 13px; fill: #3fb950; font-weight: bold; }
      .barlabel { font-family: 'Courier New', monospace; font-size: 13px; fill: #e6f1ff; }
      .barbg { fill: #21262d; }
    </style>
  </defs>

  <rect class="bg" width="940" height="560" rx="10"/>
  <rect class="border" x="10" y="10" width="920" height="540" rx="8"/>

  <circle cx="34" cy="34" r="6" fill="#ff5f56"/>
  <circle cx="54" cy="34" r="6" fill="#ffbd2e"/>
  <circle cx="74" cy="34" r="6" fill="#27c93f"/>
  <text x="470.0" y="39" text-anchor="middle" class="path">polikeybhuvan / README.md</text>

  <line x1="10" y1="56" x2="930" y2="56" stroke="#21262d" stroke-width="1"/>

  <!-- BOOT SEQUENCE -->
  <text x="34" y="90" class="prompt">// init --engineer polikeybhuvan</text>

  <g>
    <text x="34" y="122" class="boot" opacity="0">
      Loading cloud_infra module...
      <animate attributeName="opacity" values="0;1" begin="0.2s" dur="0.3s" fill="freeze"/>
    </text>
    <text x="290" y="122" class="bootok" opacity="0">[ OK ]
      <animate attributeName="opacity" values="0;1" begin="1.0s" dur="0.3s" fill="freeze"/>
    </text>
  </g>

  <g>
    <text x="34" y="150" class="boot" opacity="0">
      Loading generative_ai module...
      <animate attributeName="opacity" values="0;1" begin="1.3s" dur="0.3s" fill="freeze"/>
    </text>
    <text x="290" y="150" class="bootok" opacity="0">[ OK ]
      <animate attributeName="opacity" values="0;1" begin="2.1s" dur="0.3s" fill="freeze"/>
    </text>
  </g>

  <g>
    <text x="34" y="178" class="boot" opacity="0">
      Loading vr_render_engine module...
      <animate attributeName="opacity" values="0;1" begin="2.4s" dur="0.3s" fill="freeze"/>
    </text>
    <text x="290" y="178" class="bootok" opacity="0">[ OK ]
      <animate attributeName="opacity" values="0;1" begin="3.2s" dur="0.3s" fill="freeze"/>
    </text>
  </g>

  <line x1="34" y1="200" x2="350" y2="200" stroke="#21262d" stroke-width="1"/>

  <!-- Skill bars -->
  <text x="34" y="228" class="barlabel">Cloud &amp; AWS</text>
  <rect class="barbg" x="34" y="238" width="310" height="10" rx="5"/>
  <rect fill="#58a6ff" x="34" y="238" height="10" rx="5" width="0">
    <animate attributeName="width" values="0;285" begin="0.4s" dur="1.2s" fill="freeze"/>
  </rect>
  <text x="349" y="247" class="barlabel">92%</text>

  <text x="34" y="272" class="barlabel">Generative AI</text>
  <rect class="barbg" x="34" y="282" width="310" height="10" rx="5"/>
  <rect fill="#bd93f9" x="34" y="282" height="10" rx="5" width="0">
    <animate attributeName="width" values="0;260" begin="1.5s" dur="1.2s" fill="freeze"/>
  </rect>
  <text x="349" y="291" class="barlabel">84%</text>

  <text x="34" y="316" class="barlabel">VR / 3D Design</text>
  <rect class="barbg" x="34" y="326" width="310" height="10" rx="5"/>
  <rect fill="#ffd94a" x="34" y="326" height="10" rx="5" width="0">
    <animate attributeName="width" values="0;230" begin="2.6s" dur="1.2s" fill="freeze"/>
  </rect>
  <text x="349" y="335" class="barlabel">74%</text>

  <line x1="34" y1="358" x2="350" y2="358" stroke="#21262d" stroke-width="1"/>

  <text x="34" y="386" class="heading">// echo $STATUS</text>
  <text x="34" y="412" class="value" opacity="0">"Open for Internships and Work Opportunities"
    <animate attributeName="opacity" values="0;1" begin="4.0s" dur="0.5s" fill="freeze"/>
  </text>

  <rect class="cursor" x="34" y="426" width="8" height="14" opacity="0">
    <animate attributeName="opacity" values="0;1;1;0;0" keyTimes="0;0.01;0.5;0.51;1" begin="4.3s" dur="1s" repeatCount="indefinite"/>
  </rect>

  <!-- divider -->
  <line x1="370" y1="66" x2="370" y2="540" stroke="#21262d" stroke-width="1"/>

  <!-- info block -->
  <text x="390" y="86" class="prompt">// whoami --verbose</text>
  <rect class="cursor" x="542" y="76" width="7" height="13">
    <animate attributeName="opacity" values="1;1;0;0" keyTimes="0;0.5;0.51;1" dur="1s" repeatCount="indefinite" />
  </rect>

  <text x="390" y="120" class="label">Subject   </text><text x="536" y="120" class="value">Polikey Bhuvan</text>
  <text x="390" y="144" class="label">Role      </text><text x="536" y="144" class="value">AWS Cloud &amp; AI Engineer</text>
  <text x="390" y="168" class="label">Origin    </text><text x="536" y="168" class="value">Jamshedpur, Jharkhand, India</text>
  <text x="390" y="192" class="label">Education </text><text x="536" y="192" class="value">B.Tech CSE, Centurion University</text>
  <text x="390" y="216" class="label">Status    </text><text x="536" y="216" class="value">Open to Internships / Entry-level</text>
  <text x="390" y="240" class="label">ToolChain </text><text x="536" y="240" class="value">AWS, Gemini API, Unity, UE5</text>

  <line x1="390" y1="262" x2="910" y2="262" stroke="#21262d" stroke-width="1"/>

  <text x="390" y="292" class="heading">core.stack</text>
  <text x="390" y="318" class="label">Lang      </text><text x="536" y="318" class="value">Python, C#, Java, C/C++</text>
  <text x="390" y="342" class="label">Cloud     </text><text x="536" y="342" class="value">Lambda, S3, DynamoDB, SNS/SQS</text>
  <text x="390" y="366" class="label">AI/ML     </text><text x="536" y="366" class="value">Generative AI, LLMs, Prompt Eng.</text>
  <text x="390" y="390" class="label">VR/3D     </text><text x="536" y="390" class="value">Unity, Unreal Engine 5, Blender</text>

  <line x1="390" y1="412" x2="910" y2="412" stroke="#21262d" stroke-width="1"/>

  <text x="390" y="442" class="heading">contact.grid</text>
  <text x="390" y="468" class="label">Mail      </text><text x="536" y="468" class="value">polikeybhuvan@gmail.com</text>
  <text x="390" y="492" class="label">Portfolio </text><text x="536" y="492" class="value">polikey-bhuvan.onrender.com</text>
  <text x="390" y="516" class="label">LinkedIn  </text><text x="536" y="516" class="value">linkedin.com/in/polikeybhuvan</text>
  <text x="390" y="540" class="label">GitHub    </text><text x="536" y="540" class="value">github.com/polikeybhuvan</text>
</svg>
